<svg width="39" height="57" viewBox="0 0 39 57" fill="none" xmlns="http://www.w3.org/2000/svg">
<g clip-path="url(#clip0_2_14)">
<path d="M19.5981 28.367C19.5981 23.2501 23.7462 19.1019 28.8632 19.1019C33.9801 19.1019 38.1283 23.2501 38.1283 28.367C38.1283 33.484 33.9801 37.6321 28.8632 37.6321C23.7462 37.6321 19.5981 33.484 19.5981 28.367Z" fill="#1ABCFE"/>
<path d="M1.06812 46.8973C1.06812 41.7804 5.21622 37.6322 10.3332 37.6322H19.5982V46.8973C19.5982 52.0143 15.4502 56.1623 10.3332 56.1623C5.21622 56.1623 1.06812 52.0143 1.06812 46.8973Z" fill="#0ACF83"/>
<path d="M19.5981 0.571899V19.102H28.8632C33.9802 19.102 38.1283 14.9539 38.1283 9.83696C38.1283 4.72001 33.9802 0.571899 28.8632 0.571899H19.5981Z" fill="#FF7262"/>
<path d="M1.06812 9.83696C1.06812 14.9539 5.21622 19.102 10.3332 19.102H19.5982V0.571899H10.3332C5.21622 0.571899 1.06812 4.72001 1.06812 9.83696Z" fill="#F24E1E"/>
<path d="M1.06812 28.367C1.06812 33.484 5.21622 37.6321 10.3332 37.6321H19.5982V19.1019H10.3332C5.21622 19.1019 1.06812 23.2501 1.06812 28.367Z" fill="#A259FF"/>
</g>
<defs>
<clipPath id="clip0_2_14">
<rect width="37.4414" height="56.1622" fill="white" transform="translate(0.877441 0.286011)"/>
</clipPath>
</defs>
</svg>
