<svg width="86" height="85" viewBox="0 0 86 85" fill="none" xmlns="http://www.w3.org/2000/svg">
<g clip-path="url(#clip0_3_24)">
<mask id="mask0_3_24" style="mask-type:luminance" maskUnits="userSpaceOnUse" x="0" y="0" width="86" height="85">
<path d="M0.915283 0.0107269H85.1585V84.254H0.915283V0.0107269Z" fill="white"/>
</mask>
<g mask="url(#mask0_3_24)">
<path d="M68.1642 28.7091C70.3812 32.7545 71.6429 37.3969 71.6429 42.3351C71.6429 52.8137 65.9642 61.9621 57.5201 66.8853L66.1952 41.8029C67.8155 37.7509 68.3551 34.5109 68.3551 31.6299C68.3551 30.5842 68.2862 29.6137 68.1642 28.7091ZM47.1548 29.0183C48.8648 28.9284 50.4056 28.7486 50.4056 28.7486C51.936 28.5674 51.7555 26.3182 50.2244 26.4078C50.2244 26.4078 45.6238 26.7688 42.6538 26.7688C39.8631 26.7688 35.1736 26.4078 35.1736 26.4078C33.6418 26.3182 33.4623 28.658 34.9934 28.7486C34.9934 28.7486 36.4422 28.9284 37.9727 29.0183L42.3974 41.143L36.1808 59.7845L25.8383 29.0183C27.5496 28.9284 29.0887 28.7486 29.0887 28.7486C30.6181 28.5674 30.4376 26.3182 28.9072 26.4078C28.9072 26.4078 24.3075 26.7688 21.3373 26.7688C20.8044 26.7688 20.1763 26.7558 19.5094 26.7344C24.588 19.0241 33.3172 13.9324 43.2405 13.9324C50.6346 13.9324 57.3673 16.7596 62.4203 21.3896C62.2979 21.3823 62.1786 21.3669 62.0525 21.3669C59.2625 21.3669 57.2827 23.7973 57.2827 26.4078C57.2827 28.7486 58.6333 30.7289 60.0728 33.0694C61.1529 34.9612 62.4146 37.3912 62.4146 40.9026C62.4146 43.3333 61.4795 46.1545 60.2533 50.0845L57.4195 59.5502L47.1548 29.0183ZM43.2405 70.7401C40.4525 70.7401 37.7617 70.3313 35.2164 69.5828L43.7393 44.8196L52.4692 68.7384C52.5267 68.8788 52.5972 69.0081 52.6724 69.1298C49.7202 70.1692 46.5481 70.7401 43.2405 70.7401ZM14.8379 42.3351C14.8379 38.2172 15.7211 34.3083 17.2973 30.7761L30.8461 67.8973C21.3704 63.294 14.8379 53.5776 14.8379 42.3351ZM43.2405 10.7449C25.8212 10.7449 11.6497 24.9162 11.6497 42.3351C11.6497 59.7547 25.8212 73.9277 43.2405 73.9277C60.6595 73.9277 74.8318 59.7547 74.8318 42.3351C74.8318 24.9162 60.6595 10.7449 43.2405 10.7449Z" fill="#3F3C3C"/>
</g>
</g>
<defs>
<clipPath id="clip0_3_24">
<rect width="84.2432" height="84.2432" fill="white" transform="translate(0.915283 0.0107422)"/>
</clipPath>
</defs>
</svg>
